ply
format ascii 1.0
comment Sanitized challenge scan; coordinates retain source units.
element vertex 386
property float x
property float y
property float z
element face 768
property list uchar int vertex_indices
end_header
0 0 0
6.25 0 0
6.25 0 24.26
0 0 24.26
6.2466537 0.20449427 0
6.2466537 0.20449427 24.26
6.2366183 0.40876956 0
6.2366183 0.40876956 24.26
6.2199045 0.61260713 0
6.2199045 0.61260713 24.26
6.1965304 0.8157887 0
6.1965304 0.8157887 24.26
6.1665208 1.0180967 0
6.1665208 1.0180967 24.26
6.129908 1.2193145 0
6.129908 1.2193145 24.26
6.0867311 1.4192266 0
6.0867311 1.4192266 24.26
6.0370364 1.617619 0
6.0370364 1.617619 24.26
5.9808771 1.8142792 0
5.9808771 1.8142792 24.26
5.9183133 2.0089967 0
5.9183133 2.0089967 24.26
5.849412 2.2015628 0
5.849412 2.2015628 24.26
5.7742471 2.3917715 0
5.7742471 2.3917715 24.26
5.6928989 2.5794189 0
5.6928989 2.5794189 24.26
5.6054546 2.7643043 0
5.6054546 2.7643043 24.26
5.5120079 2.9462296 0
5.5120079 2.9462296 24.26
5.4126588 3.125 0
5.4126588 3.125 24.26
5.3075136 3.3004241 0
5.3075136 3.3004241 24.26
5.1966851 3.472314 0
5.1966851 3.472314 24.26
5.0802918 3.6404856 0
5.0802918 3.6404856 24.26
4.9584584 3.8047589 0
4.9584584 3.8047589 24.26
4.8313153 3.964958 0
4.8313153 3.964958 24.26
4.6989988 4.1209113 0
4.6989988 4.1209113 24.26
4.5616505 4.2724519 0
4.5616505 4.2724519 24.26
4.4194174 4.4194174 0
4.4194174 4.4194174 24.26
4.2724519 4.5616505 0
4.2724519 4.5616505 24.26
4.1209113 4.6989988 0
4.1209113 4.6989988 24.26
3.964958 4.8313153 0
3.964958 4.8313153 24.26
3.8047589 4.9584584 0
3.8047589 4.9584584 24.26
3.6404856 5.0802918 0
3.6404856 5.0802918 24.26
3.472314 5.1966851 0
3.472314 5.1966851 24.26
3.3004241 5.3075136 0
3.3004241 5.3075136 24.26
3.125 5.4126588 0
3.125 5.4126588 24.26
2.9462296 5.5120079 0
2.9462296 5.5120079 24.26
2.7643043 5.6054546 0
2.7643043 5.6054546 24.26
2.5794189 5.6928989 0
2.5794189 5.6928989 24.26
2.3917715 5.7742471 0
2.3917715 5.7742471 24.26
2.2015628 5.849412 0
2.2015628 5.849412 24.26
2.0089967 5.9183133 0
2.0089967 5.9183133 24.26
1.8142792 5.9808771 0
1.8142792 5.9808771 24.26
1.617619 6.0370364 0
1.617619 6.0370364 24.26
1.4192266 6.0867311 0
1.4192266 6.0867311 24.26
1.2193145 6.129908 0
1.2193145 6.129908 24.26
1.0180967 6.1665208 0
1.0180967 6.1665208 24.26
0.8157887 6.1965304 0
0.8157887 6.1965304 24.26
0.61260713 6.2199045 0
0.61260713 6.2199045 24.26
0.40876956 6.2366183 0
0.40876956 6.2366183 24.26
0.20449427 6.2466537 0
0.20449427 6.2466537 24.26
3.8270212e-16 6.25 0
3.8270212e-16 6.25 24.26
-0.20449427 6.2466537 0
-0.20449427 6.2466537 24.26
-0.40876956 6.2366183 0
-0.40876956 6.2366183 24.26
-0.61260713 6.2199045 0
-0.61260713 6.2199045 24.26
-0.8157887 6.1965304 0
-0.8157887 6.1965304 24.26
-1.0180967 6.1665208 0
-1.0180967 6.1665208 24.26
-1.2193145 6.129908 0
-1.2193145 6.129908 24.26
-1.4192266 6.0867311 0
-1.4192266 6.0867311 24.26
-1.617619 6.0370364 0
-1.617619 6.0370364 24.26
-1.8142792 5.9808771 0
-1.8142792 5.9808771 24.26
-2.0089967 5.9183133 0
-2.0089967 5.9183133 24.26
-2.2015628 5.849412 0
-2.2015628 5.849412 24.26
-2.3917715 5.7742471 0
-2.3917715 5.7742471 24.26
-2.5794189 5.6928989 0
-2.5794189 5.6928989 24.26
-2.7643043 5.6054546 0
-2.7643043 5.6054546 24.26
-2.9462296 5.5120079 0
-2.9462296 5.5120079 24.26
-3.125 5.4126588 0
-3.125 5.4126588 24.26
-3.3004241 5.3075136 0
-3.3004241 5.3075136 24.26
-3.472314 5.1966851 0
-3.472314 5.1966851 24.26
-3.6404856 5.0802918 0
-3.6404856 5.0802918 24.26
-3.8047589 4.9584584 0
-3.8047589 4.9584584 24.26
-3.964958 4.8313153 0
-3.964958 4.8313153 24.26
-4.1209113 4.6989988 0
-4.1209113 4.6989988 24.26
-4.2724519 4.5616505 0
-4.2724519 4.5616505 24.26
-4.4194174 4.4194174 0
-4.4194174 4.4194174 24.26
-4.5616505 4.2724519 0
-4.5616505 4.2724519 24.26
-4.6989988 4.1209113 0
-4.6989988 4.1209113 24.26
-4.8313153 3.964958 0
-4.8313153 3.964958 24.26
-4.9584584 3.8047589 0
-4.9584584 3.8047589 24.26
-5.0802918 3.6404856 0
-5.0802918 3.6404856 24.26
-5.1966851 3.472314 0
-5.1966851 3.472314 24.26
-5.3075136 3.3004241 0
-5.3075136 3.3004241 24.26
-5.4126588 3.125 0
-5.4126588 3.125 24.26
-5.5120079 2.9462296 0
-5.5120079 2.9462296 24.26
-5.6054546 2.7643043 0
-5.6054546 2.7643043 24.26
-5.6928989 2.5794189 0
-5.6928989 2.5794189 24.26
-5.7742471 2.3917715 0
-5.7742471 2.3917715 24.26
-5.849412 2.2015628 0
-5.849412 2.2015628 24.26
-5.9183133 2.0089967 0
-5.9183133 2.0089967 24.26
-5.9808771 1.8142792 0
-5.9808771 1.8142792 24.26
-6.0370364 1.617619 0
-6.0370364 1.617619 24.26
-6.0867311 1.4192266 0
-6.0867311 1.4192266 24.26
-6.129908 1.2193145 0
-6.129908 1.2193145 24.26
-6.1665208 1.0180967 0
-6.1665208 1.0180967 24.26
-6.1965304 0.8157887 0
-6.1965304 0.8157887 24.26
-6.2199045 0.61260713 0
-6.2199045 0.61260713 24.26
-6.2366183 0.40876956 0
-6.2366183 0.40876956 24.26
-6.2466537 0.20449427 0
-6.2466537 0.20449427 24.26
-6.25 7.6540425e-16 0
-6.25 7.6540425e-16 24.26
-6.2466537 -0.20449427 0
-6.2466537 -0.20449427 24.26
-6.2366183 -0.40876956 0
-6.2366183 -0.40876956 24.26
-6.2199045 -0.61260713 0
-6.2199045 -0.61260713 24.26
-6.1965304 -0.8157887 0
-6.1965304 -0.8157887 24.26
-6.1665208 -1.0180967 0
-6.1665208 -1.0180967 24.26
-6.129908 -1.2193145 0
-6.129908 -1.2193145 24.26
-6.0867311 -1.4192266 0
-6.0867311 -1.4192266 24.26
-6.0370364 -1.617619 0
-6.0370364 -1.617619 24.26
-5.9808771 -1.8142792 0
-5.9808771 -1.8142792 24.26
-5.9183133 -2.0089967 0
-5.9183133 -2.0089967 24.26
-5.849412 -2.2015628 0
-5.849412 -2.2015628 24.26
-5.7742471 -2.3917715 0
-5.7742471 -2.3917715 24.26
-5.6928989 -2.5794189 0
-5.6928989 -2.5794189 24.26
-5.6054546 -2.7643043 0
-5.6054546 -2.7643043 24.26
-5.5120079 -2.9462296 0
-5.5120079 -2.9462296 24.26
-5.4126588 -3.125 0
-5.4126588 -3.125 24.26
-5.3075136 -3.3004241 0
-5.3075136 -3.3004241 24.26
-5.1966851 -3.472314 0
-5.1966851 -3.472314 24.26
-5.0802918 -3.6404856 0
-5.0802918 -3.6404856 24.26
-4.9584584 -3.8047589 0
-4.9584584 -3.8047589 24.26
-4.8313153 -3.964958 0
-4.8313153 -3.964958 24.26
-4.6989988 -4.1209113 0
-4.6989988 -4.1209113 24.26
-4.5616505 -4.2724519 0
-4.5616505 -4.2724519 24.26
-4.4194174 -4.4194174 0
-4.4194174 -4.4194174 24.26
-4.2724519 -4.5616505 0
-4.2724519 -4.5616505 24.26
-4.1209113 -4.6989988 0
-4.1209113 -4.6989988 24.26
-3.964958 -4.8313153 0
-3.964958 -4.8313153 24.26
-3.8047589 -4.9584584 0
-3.8047589 -4.9584584 24.26
-3.6404856 -5.0802918 0
-3.6404856 -5.0802918 24.26
-3.472314 -5.1966851 0
-3.472314 -5.1966851 24.26
-3.3004241 -5.3075136 0
-3.3004241 -5.3075136 24.26
-3.125 -5.4126588 0
-3.125 -5.4126588 24.26
-2.9462296 -5.5120079 0
-2.9462296 -5.5120079 24.26
-2.7643043 -5.6054546 0
-2.7643043 -5.6054546 24.26
-2.5794189 -5.6928989 0
-2.5794189 -5.6928989 24.26
-2.3917715 -5.7742471 0
-2.3917715 -5.7742471 24.26
-2.2015628 -5.849412 0
-2.2015628 -5.849412 24.26
-2.0089967 -5.9183133 0
-2.0089967 -5.9183133 24.26
-1.8142792 -5.9808771 0
-1.8142792 -5.9808771 24.26
-1.617619 -6.0370364 0
-1.617619 -6.0370364 24.26
-1.4192266 -6.0867311 0
-1.4192266 -6.0867311 24.26
-1.2193145 -6.129908 0
-1.2193145 -6.129908 24.26
-1.0180967 -6.1665208 0
-1.0180967 -6.1665208 24.26
-0.8157887 -6.1965304 0
-0.8157887 -6.1965304 24.26
-0.61260713 -6.2199045 0
-0.61260713 -6.2199045 24.26
-0.40876956 -6.2366183 0
-0.40876956 -6.2366183 24.26
-0.20449427 -6.2466537 0
-0.20449427 -6.2466537 24.26
-1.1481064e-15 -6.25 0
-1.1481064e-15 -6.25 24.26
0.20449427 -6.2466537 0
0.20449427 -6.2466537 24.26
0.40876956 -6.2366183 0
0.40876956 -6.2366183 24.26
0.61260713 -6.2199045 0
0.61260713 -6.2199045 24.26
0.8157887 -6.1965304 0
0.8157887 -6.1965304 24.26
1.0180967 -6.1665208 0
1.0180967 -6.1665208 24.26
1.2193145 -6.129908 0
1.2193145 -6.129908 24.26
1.4192266 -6.0867311 0
1.4192266 -6.0867311 24.26
1.617619 -6.0370364 0
1.617619 -6.0370364 24.26
1.8142792 -5.9808771 0
1.8142792 -5.9808771 24.26
2.0089967 -5.9183133 0
2.0089967 -5.9183133 24.26
2.2015628 -5.849412 0
2.2015628 -5.849412 24.26
2.3917715 -5.7742471 0
2.3917715 -5.7742471 24.26
2.5794189 -5.6928989 0
2.5794189 -5.6928989 24.26
2.7643043 -5.6054546 0
2.7643043 -5.6054546 24.26
2.9462296 -5.5120079 0
2.9462296 -5.5120079 24.26
3.125 -5.4126588 0
3.125 -5.4126588 24.26
3.3004241 -5.3075136 0
3.3004241 -5.3075136 24.26
3.472314 -5.1966851 0
3.472314 -5.1966851 24.26
3.6404856 -5.0802918 0
3.6404856 -5.0802918 24.26
3.8047589 -4.9584584 0
3.8047589 -4.9584584 24.26
3.964958 -4.8313153 0
3.964958 -4.8313153 24.26
4.1209113 -4.6989988 0
4.1209113 -4.6989988 24.26
4.2724519 -4.5616505 0
4.2724519 -4.5616505 24.26
4.4194174 -4.4194174 0
4.4194174 -4.4194174 24.26
4.5616505 -4.2724519 0
4.5616505 -4.2724519 24.26
4.6989988 -4.1209113 0
4.6989988 -4.1209113 24.26
4.8313153 -3.964958 0
4.8313153 -3.964958 24.26
4.9584584 -3.8047589 0
4.9584584 -3.8047589 24.26
5.0802918 -3.6404856 0
5.0802918 -3.6404856 24.26
5.1966851 -3.472314 0
5.1966851 -3.472314 24.26
5.3075136 -3.3004241 0
5.3075136 -3.3004241 24.26
5.4126588 -3.125 0
5.4126588 -3.125 24.26
5.5120079 -2.9462296 0
5.5120079 -2.9462296 24.26
5.6054546 -2.7643043 0
5.6054546 -2.7643043 24.26
5.6928989 -2.5794189 0
5.6928989 -2.5794189 24.26
5.7742471 -2.3917715 0
5.7742471 -2.3917715 24.26
5.849412 -2.2015628 0
5.849412 -2.2015628 24.26
5.9183133 -2.0089967 0
5.9183133 -2.0089967 24.26
5.9808771 -1.8142792 0
5.9808771 -1.8142792 24.26
6.0370364 -1.617619 0
6.0370364 -1.617619 24.26
6.0867311 -1.4192266 0
6.0867311 -1.4192266 24.26
6.129908 -1.2193145 0
6.129908 -1.2193145 24.26
6.1665208 -1.0180967 0
6.1665208 -1.0180967 24.26
6.1965304 -0.8157887 0
6.1965304 -0.8157887 24.26
6.2199045 -0.61260713 0
6.2199045 -0.61260713 24.26
6.2366183 -0.40876956 0
6.2366183 -0.40876956 24.26
6.2466537 -0.20449427 0
6.2466537 -0.20449427 24.26
3 1 0 4
3 1 4 2
3 2 4 5
3 2 5 3
3 4 0 6
3 4 6 5
3 5 6 7
3 5 7 3
3 6 0 8
3 6 8 7
3 7 8 9
3 7 9 3
3 8 0 10
3 8 10 9
3 9 10 11
3 9 11 3
3 10 0 12
3 10 12 11
3 11 12 13
3 11 13 3
3 12 0 14
3 12 14 13
3 13 14 15
3 13 15 3
3 14 0 16
3 14 16 15
3 15 16 17
3 15 17 3
3 16 0 18
3 16 18 17
3 17 18 19
3 17 19 3
3 18 0 20
3 18 20 19
3 19 20 21
3 19 21 3
3 20 0 22
3 20 22 21
3 21 22 23
3 21 23 3
3 22 0 24
3 22 24 23
3 23 24 25
3 23 25 3
3 24 0 26
3 24 26 25
3 25 26 27
3 25 27 3
3 26 0 28
3 26 28 27
3 27 28 29
3 27 29 3
3 28 0 30
3 28 30 29
3 29 30 31
3 29 31 3
3 30 0 32
3 30 32 31
3 31 32 33
3 31 33 3
3 32 0 34
3 32 34 33
3 33 34 35
3 33 35 3
3 34 0 36
3 34 36 35
3 35 36 37
3 35 37 3
3 36 0 38
3 36 38 37
3 37 38 39
3 37 39 3
3 38 0 40
3 38 40 39
3 39 40 41
3 39 41 3
3 40 0 42
3 40 42 41
3 41 42 43
3 41 43 3
3 42 0 44
3 42 44 43
3 43 44 45
3 43 45 3
3 44 0 46
3 44 46 45
3 45 46 47
3 45 47 3
3 46 0 48
3 46 48 47
3 47 48 49
3 47 49 3
3 48 0 50
3 48 50 49
3 49 50 51
3 49 51 3
3 50 0 52
3 50 52 51
3 51 52 53
3 51 53 3
3 52 0 54
3 52 54 53
3 53 54 55
3 53 55 3
3 54 0 56
3 54 56 55
3 55 56 57
3 55 57 3
3 56 0 58
3 56 58 57
3 57 58 59
3 57 59 3
3 58 0 60
3 58 60 59
3 59 60 61
3 59 61 3
3 60 0 62
3 60 62 61
3 61 62 63
3 61 63 3
3 62 0 64
3 62 64 63
3 63 64 65
3 63 65 3
3 64 0 66
3 64 66 65
3 65 66 67
3 65 67 3
3 66 0 68
3 66 68 67
3 67 68 69
3 67 69 3
3 68 0 70
3 68 70 69
3 69 70 71
3 69 71 3
3 70 0 72
3 70 72 71
3 71 72 73
3 71 73 3
3 72 0 74
3 72 74 73
3 73 74 75
3 73 75 3
3 74 0 76
3 74 76 75
3 75 76 77
3 75 77 3
3 76 0 78
3 76 78 77
3 77 78 79
3 77 79 3
3 78 0 80
3 78 80 79
3 79 80 81
3 79 81 3
3 80 0 82
3 80 82 81
3 81 82 83
3 81 83 3
3 82 0 84
3 82 84 83
3 83 84 85
3 83 85 3
3 84 0 86
3 84 86 85
3 85 86 87
3 85 87 3
3 86 0 88
3 86 88 87
3 87 88 89
3 87 89 3
3 88 0 90
3 88 90 89
3 89 90 91
3 89 91 3
3 90 0 92
3 90 92 91
3 91 92 93
3 91 93 3
3 92 0 94
3 92 94 93
3 93 94 95
3 93 95 3
3 94 0 96
3 94 96 95
3 95 96 97
3 95 97 3
3 96 0 98
3 96 98 97
3 97 98 99
3 97 99 3
3 98 0 100
3 98 100 99
3 99 100 101
3 99 101 3
3 100 0 102
3 100 102 101
3 101 102 103
3 101 103 3
3 102 0 104
3 102 104 103
3 103 104 105
3 103 105 3
3 104 0 106
3 104 106 105
3 105 106 107
3 105 107 3
3 106 0 108
3 106 108 107
3 107 108 109
3 107 109 3
3 108 0 110
3 108 110 109
3 109 110 111
3 109 111 3
3 110 0 112
3 110 112 111
3 111 112 113
3 111 113 3
3 112 0 114
3 112 114 113
3 113 114 115
3 113 115 3
3 114 0 116
3 114 116 115
3 115 116 117
3 115 117 3
3 116 0 118
3 116 118 117
3 117 118 119
3 117 119 3
3 118 0 120
3 118 120 119
3 119 120 121
3 119 121 3
3 120 0 122
3 120 122 121
3 121 122 123
3 121 123 3
3 122 0 124
3 122 124 123
3 123 124 125
3 123 125 3
3 124 0 126
3 124 126 125
3 125 126 127
3 125 127 3
3 126 0 128
3 126 128 127
3 127 128 129
3 127 129 3
3 128 0 130
3 128 130 129
3 129 130 131
3 129 131 3
3 130 0 132
3 130 132 131
3 131 132 133
3 131 133 3
3 132 0 134
3 132 134 133
3 133 134 135
3 133 135 3
3 134 0 136
3 134 136 135
3 135 136 137
3 135 137 3
3 136 0 138
3 136 138 137
3 137 138 139
3 137 139 3
3 138 0 140
3 138 140 139
3 139 140 141
3 139 141 3
3 140 0 142
3 140 142 141
3 141 142 143
3 141 143 3
3 142 0 144
3 142 144 143
3 143 144 145
3 143 145 3
3 144 0 146
3 144 146 145
3 145 146 147
3 145 147 3
3 146 0 148
3 146 148 147
3 147 148 149
3 147 149 3
3 148 0 150
3 148 150 149
3 149 150 151
3 149 151 3
3 150 0 152
3 150 152 151
3 151 152 153
3 151 153 3
3 152 0 154
3 152 154 153
3 153 154 155
3 153 155 3
3 154 0 156
3 154 156 155
3 155 156 157
3 155 157 3
3 156 0 158
3 156 158 157
3 157 158 159
3 157 159 3
3 158 0 160
3 158 160 159
3 159 160 161
3 159 161 3
3 160 0 162
3 160 162 161
3 161 162 163
3 161 163 3
3 162 0 164
3 162 164 163
3 163 164 165
3 163 165 3
3 164 0 166
3 164 166 165
3 165 166 167
3 165 167 3
3 166 0 168
3 166 168 167
3 167 168 169
3 167 169 3
3 168 0 170
3 168 170 169
3 169 170 171
3 169 171 3
3 170 0 172
3 170 172 171
3 171 172 173
3 171 173 3
3 172 0 174
3 172 174 173
3 173 174 175
3 173 175 3
3 174 0 176
3 174 176 175
3 175 176 177
3 175 177 3
3 176 0 178
3 176 178 177
3 177 178 179
3 177 179 3
3 178 0 180
3 178 180 179
3 179 180 181
3 179 181 3
3 180 0 182
3 180 182 181
3 181 182 183
3 181 183 3
3 182 0 184
3 182 184 183
3 183 184 185
3 183 185 3
3 184 0 186
3 184 186 185
3 185 186 187
3 185 187 3
3 186 0 188
3 186 188 187
3 187 188 189
3 187 189 3
3 188 0 190
3 188 190 189
3 189 190 191
3 189 191 3
3 190 0 192
3 190 192 191
3 191 192 193
3 191 193 3
3 192 0 194
3 192 194 193
3 193 194 195
3 193 195 3
3 194 0 196
3 194 196 195
3 195 196 197
3 195 197 3
3 196 0 198
3 196 198 197
3 197 198 199
3 197 199 3
3 198 0 200
3 198 200 199
3 199 200 201
3 199 201 3
3 200 0 202
3 200 202 201
3 201 202 203
3 201 203 3
3 202 0 204
3 202 204 203
3 203 204 205
3 203 205 3
3 204 0 206
3 204 206 205
3 205 206 207
3 205 207 3
3 206 0 208
3 206 208 207
3 207 208 209
3 207 209 3
3 208 0 210
3 208 210 209
3 209 210 211
3 209 211 3
3 210 0 212
3 210 212 211
3 211 212 213
3 211 213 3
3 212 0 214
3 212 214 213
3 213 214 215
3 213 215 3
3 214 0 216
3 214 216 215
3 215 216 217
3 215 217 3
3 216 0 218
3 216 218 217
3 217 218 219
3 217 219 3
3 218 0 220
3 218 220 219
3 219 220 221
3 219 221 3
3 220 0 222
3 220 222 221
3 221 222 223
3 221 223 3
3 222 0 224
3 222 224 223
3 223 224 225
3 223 225 3
3 224 0 226
3 224 226 225
3 225 226 227
3 225 227 3
3 226 0 228
3 226 228 227
3 227 228 229
3 227 229 3
3 228 0 230
3 228 230 229
3 229 230 231
3 229 231 3
3 230 0 232
3 230 232 231
3 231 232 233
3 231 233 3
3 232 0 234
3 232 234 233
3 233 234 235
3 233 235 3
3 234 0 236
3 234 236 235
3 235 236 237
3 235 237 3
3 236 0 238
3 236 238 237
3 237 238 239
3 237 239 3
3 238 0 240
3 238 240 239
3 239 240 241
3 239 241 3
3 240 0 242
3 240 242 241
3 241 242 243
3 241 243 3
3 242 0 244
3 242 244 243
3 243 244 245
3 243 245 3
3 244 0 246
3 244 246 245
3 245 246 247
3 245 247 3
3 246 0 248
3 246 248 247
3 247 248 249
3 247 249 3
3 248 0 250
3 248 250 249
3 249 250 251
3 249 251 3
3 250 0 252
3 250 252 251
3 251 252 253
3 251 253 3
3 252 0 254
3 252 254 253
3 253 254 255
3 253 255 3
3 254 0 256
3 254 256 255
3 255 256 257
3 255 257 3
3 256 0 258
3 256 258 257
3 257 258 259
3 257 259 3
3 258 0 260
3 258 260 259
3 259 260 261
3 259 261 3
3 260 0 262
3 260 262 261
3 261 262 263
3 261 263 3
3 262 0 264
3 262 264 263
3 263 264 265
3 263 265 3
3 264 0 266
3 264 266 265
3 265 266 267
3 265 267 3
3 266 0 268
3 266 268 267
3 267 268 269
3 267 269 3
3 268 0 270
3 268 270 269
3 269 270 271
3 269 271 3
3 270 0 272
3 270 272 271
3 271 272 273
3 271 273 3
3 272 0 274
3 272 274 273
3 273 274 275
3 273 275 3
3 274 0 276
3 274 276 275
3 275 276 277
3 275 277 3
3 276 0 278
3 276 278 277
3 277 278 279
3 277 279 3
3 278 0 280
3 278 280 279
3 279 280 281
3 279 281 3
3 280 0 282
3 280 282 281
3 281 282 283
3 281 283 3
3 282 0 284
3 282 284 283
3 283 284 285
3 283 285 3
3 284 0 286
3 284 286 285
3 285 286 287
3 285 287 3
3 286 0 288
3 286 288 287
3 287 288 289
3 287 289 3
3 288 0 290
3 288 290 289
3 289 290 291
3 289 291 3
3 290 0 292
3 290 292 291
3 291 292 293
3 291 293 3
3 292 0 294
3 292 294 293
3 293 294 295
3 293 295 3
3 294 0 296
3 294 296 295
3 295 296 297
3 295 297 3
3 296 0 298
3 296 298 297
3 297 298 299
3 297 299 3
3 298 0 300
3 298 300 299
3 299 300 301
3 299 301 3
3 300 0 302
3 300 302 301
3 301 302 303
3 301 303 3
3 302 0 304
3 302 304 303
3 303 304 305
3 303 305 3
3 304 0 306
3 304 306 305
3 305 306 307
3 305 307 3
3 306 0 308
3 306 308 307
3 307 308 309
3 307 309 3
3 308 0 310
3 308 310 309
3 309 310 311
3 309 311 3
3 310 0 312
3 310 312 311
3 311 312 313
3 311 313 3
3 312 0 314
3 312 314 313
3 313 314 315
3 313 315 3
3 314 0 316
3 314 316 315
3 315 316 317
3 315 317 3
3 316 0 318
3 316 318 317
3 317 318 319
3 317 319 3
3 318 0 320
3 318 320 319
3 319 320 321
3 319 321 3
3 320 0 322
3 320 322 321
3 321 322 323
3 321 323 3
3 322 0 324
3 322 324 323
3 323 324 325
3 323 325 3
3 324 0 326
3 324 326 325
3 325 326 327
3 325 327 3
3 326 0 328
3 326 328 327
3 327 328 329
3 327 329 3
3 328 0 330
3 328 330 329
3 329 330 331
3 329 331 3
3 330 0 332
3 330 332 331
3 331 332 333
3 331 333 3
3 332 0 334
3 332 334 333
3 333 334 335
3 333 335 3
3 334 0 336
3 334 336 335
3 335 336 337
3 335 337 3
3 336 0 338
3 336 338 337
3 337 338 339
3 337 339 3
3 338 0 340
3 338 340 339
3 339 340 341
3 339 341 3
3 340 0 342
3 340 342 341
3 341 342 343
3 341 343 3
3 342 0 344
3 342 344 343
3 343 344 345
3 343 345 3
3 344 0 346
3 344 346 345
3 345 346 347
3 345 347 3
3 346 0 348
3 346 348 347
3 347 348 349
3 347 349 3
3 348 0 350
3 348 350 349
3 349 350 351
3 349 351 3
3 350 0 352
3 350 352 351
3 351 352 353
3 351 353 3
3 352 0 354
3 352 354 353
3 353 354 355
3 353 355 3
3 354 0 356
3 354 356 355
3 355 356 357
3 355 357 3
3 356 0 358
3 356 358 357
3 357 358 359
3 357 359 3
3 358 0 360
3 358 360 359
3 359 360 361
3 359 361 3
3 360 0 362
3 360 362 361
3 361 362 363
3 361 363 3
3 362 0 364
3 362 364 363
3 363 364 365
3 363 365 3
3 364 0 366
3 364 366 365
3 365 366 367
3 365 367 3
3 366 0 368
3 366 368 367
3 367 368 369
3 367 369 3
3 368 0 370
3 368 370 369
3 369 370 371
3 369 371 3
3 370 0 372
3 370 372 371
3 371 372 373
3 371 373 3
3 372 0 374
3 372 374 373
3 373 374 375
3 373 375 3
3 374 0 376
3 374 376 375
3 375 376 377
3 375 377 3
3 376 0 378
3 376 378 377
3 377 378 379
3 377 379 3
3 378 0 380
3 378 380 379
3 379 380 381
3 379 381 3
3 380 0 382
3 380 382 381
3 381 382 383
3 381 383 3
3 382 0 384
3 382 384 383
3 383 384 385
3 383 385 3
3 384 0 1
3 384 1 385
3 385 1 2
3 385 2 3
